<svg aria-hidden="true" style="position:absolute;width:0;height:0;overflow:hidden" xmlns="http://www.w3.org/2000/svg"><defs><symbol id="mobile-menu" viewBox="0 0 32 32"><path d="M6.4 11.733V9.6h19.2v2.133H6.4zm0 5.334h19.2v-2.133H6.4v2.133zm0 5.333h19.2v-2.133H6.4V22.4z"/></symbol><symbol id="mobile-close" viewBox="0 0 32 32"><path d="M23.733 10.304 22.229 8.8l-5.963 5.963L10.303 8.8l-1.504 1.504 5.963 5.963-5.963 5.963 1.504 1.504 5.963-5.963 5.963 5.963 1.504-1.504-5.963-5.963 5.963-5.963z"/></symbol><symbol id="facebook-1" viewBox="0 0 32 32"><path fill="#fff" style="fill:var(--color1, #fff)" d="M21.329 5.313h2.921V.225C23.746.156 22.013 0 19.994 0c-4.212 0-7.097 2.649-7.097 7.519V12H8.249v5.688h4.648V32h5.699V17.689h4.46l.708-5.688h-5.169V8.082c.001-1.644.444-2.769 2.735-2.769z"/></symbol><symbol id="instagram-1" viewBox="0 0 32 32"><path fill="#fff" style="fill:var(--color1, #fff)" d="M31.969 9.408c-.075-1.7-.35-2.869-.744-3.882a7.806 7.806 0 0 0-1.851-2.838A7.867 7.867 0 0 0 26.542.844C25.523.45 24.36.175 22.66.1 20.947.019 20.403 0 16.059 0s-4.888.019-6.595.094c-1.7.075-2.869.35-3.882.744a7.803 7.803 0 0 0-2.838 1.85A7.867 7.867 0 0 0 .9 5.52C.506 6.539.231 7.702.156 9.402c-.081 1.713-.1 2.257-.1 6.601s.019 4.888.094 6.595c.075 1.7.35 2.869.744 3.882a7.895 7.895 0 0 0 1.85 2.838 7.867 7.867 0 0 0 2.832 1.844c1.019.394 2.182.669 3.882.744 1.706.075 2.25.094 6.595.094s4.888-.019 6.595-.094c1.7-.075 2.869-.35 3.882-.744a8.184 8.184 0 0 0 4.682-4.682c.394-1.019.669-2.182.744-3.882.075-1.707.094-2.251.094-6.595s-.006-4.888-.081-6.595zm-2.882 13.065c-.069 1.563-.331 2.407-.55 2.969a5.31 5.31 0 0 1-3.038 3.038c-.563.219-1.413.481-2.969.55-1.688.075-2.194.094-6.464.094s-4.782-.019-6.464-.094c-1.563-.069-2.407-.331-2.969-.55a4.926 4.926 0 0 1-1.838-1.194 4.974 4.974 0 0 1-1.194-1.838c-.219-.563-.481-1.413-.55-2.969-.075-1.688-.094-2.194-.094-6.464s.019-4.782.094-6.464c.069-1.563.331-2.407.55-2.969a4.868 4.868 0 0 1 1.2-1.838A4.974 4.974 0 0 1 6.639 3.55c.563-.219 1.413-.481 2.969-.55 1.688-.075 2.194-.094 6.464-.094 4.276 0 4.782.019 6.464.094 1.563.069 2.407.331 2.969.55a4.914 4.914 0 0 1 1.838 1.194 4.974 4.974 0 0 1 1.194 1.838c.219.563.481 1.413.55 2.969.075 1.688.094 2.194.094 6.464s-.019 4.77-.094 6.458z"/><path fill="#fff" style="fill:var(--color1, #fff)" d="M16.059 7.783c-4.538 0-8.22 3.682-8.22 8.22s3.682 8.22 8.22 8.22c4.539 0 8.22-3.682 8.22-8.22s-3.682-8.22-8.22-8.22zm0 13.553a5.333 5.333 0 0 1 0-10.664 5.333 5.333 0 0 1 0 10.664zM26.524 7.458a1.919 1.919 0 1 1-3.838 0 1.919 1.919 0 0 1 3.838 0z"/></symbol><symbol id="linkedin-1" viewBox="0 0 32 32"><path fill="#fff" style="fill:var(--color1, #fff)" d="M31.992 32v-.001H32V20.263c0-5.741-1.236-10.164-7.948-10.164-3.227 0-5.392 1.771-6.276 3.449h-.093v-2.913h-6.364v21.364h6.627V21.42c0-2.785.528-5.479 3.977-5.479 3.399 0 3.449 3.179 3.449 5.657v10.401h6.62zM.528 10.636h6.635V32H.528V10.636zM3.843 0C1.722 0 0 1.721 0 3.843s1.721 3.879 3.843 3.879c2.121 0 3.843-1.757 3.843-3.879A3.846 3.846 0 0 0 3.843 0z"/></symbol><symbol id="twitter-1" viewBox="0 0 32 32"><path fill="#fff" style="fill:var(--color1, #fff)" d="M32 6.078c-1.19.522-2.458.868-3.78 1.036a6.523 6.523 0 0 0 2.886-3.626 13.11 13.11 0 0 1-4.16 1.588A6.574 6.574 0 0 0 22.154 3c-3.632 0-6.556 2.948-6.556 6.562 0 .52.044 1.02.152 1.496-5.454-.266-10.28-2.88-13.522-6.862a6.605 6.605 0 0 0-.898 3.316 6.57 6.57 0 0 0 2.914 5.452 6.479 6.479 0 0 1-2.964-.808v.072c0 3.188 2.274 5.836 5.256 6.446a6.548 6.548 0 0 1-1.72.216 5.8 5.8 0 0 1-1.242-.112c.85 2.598 3.262 4.508 6.13 4.57a13.182 13.182 0 0 1-8.134 2.798c-.538 0-1.054-.024-1.57-.09A18.469 18.469 0 0 0 10.064 29c12.072 0 18.672-10 18.672-18.668 0-.29-.01-.57-.024-.848A13.087 13.087 0 0 0 32 6.078z"/></symbol><symbol id="client4" viewBox="0 0 57 32"><path fill="#afb1b8" style="fill:var(--color2, #afb1b8)" d="M13.548 11.643h-.001c-1.207 0-2.185.953-2.185 2.129v.001c0 1.176.978 2.129 2.185 2.129h.001c1.207 0 2.185-.953 2.185-2.129v-.001c0-1.176-.978-2.129-2.185-2.129zM29.673 10.962c-.003-1.633-.671-3.198-1.855-4.353S25.027 4.804 23.351 4.8c-1.676.003-3.283.653-4.469 1.808s-1.853 2.721-1.856 4.354v9.006s12.646-1.373 12.647-9.004v-.001zM6.933 22.924c.003 1.136.468 2.225 1.292 3.029s1.942 1.257 3.108 1.26c1.166-.003 2.283-.456 3.107-1.259s1.289-1.892 1.292-3.028V16.66s-8.799.956-8.799 6.265zm4.4 1.123c-.228 0-.451-.066-.64-.189s-.337-.299-.424-.504a1.102 1.102 0 0 1 .249-1.224c.161-.157.366-.264.59-.307s.455-.021.666.064c.21.085.39.229.517.413a1.099 1.099 0 0 1 .108 1.055 1.136 1.136 0 0 1-.623.61c-.14.056-.29.086-.442.086v-.004zM20.314 23.35h-.9v.93h-.469v-2.275h1.481v.38h-1.012v.588h.9v.378zm2.253-.156c0 .224-.04.42-.119.589a.893.893 0 0 1-.847.528c-.189 0-.357-.045-.505-.136s-.262-.22-.344-.387a1.344 1.344 0 0 1-.123-.581v-.112c0-.224.04-.421.12-.591a.895.895 0 0 1 .848-.529c.189 0 .358.046.505.137a.888.888 0 0 1 .342.392c.081.17.122.366.122.589v.102zm-.475-.103c0-.238-.043-.42-.128-.544s-.207-.186-.366-.186a.416.416 0 0 0-.364.184c-.085.122-.129.301-.13.538v.111c0 .232.043.412.128.541s.208.192.369.192a.415.415 0 0 0 .363-.184c.084-.124.127-.304.128-.541v-.111zm1.996.592a.237.237 0 0 0-.094-.203 1.203 1.203 0 0 0-.337-.15 2.418 2.418 0 0 1-.386-.156c-.258-.14-.387-.328-.387-.564 0-.123.034-.232.103-.328a.688.688 0 0 1 .298-.227c.13-.054.276-.081.438-.081.163 0 .307.03.434.089a.662.662 0 0 1 .401.614h-.469a.306.306 0 0 0-.098-.242.405.405 0 0 0-.277-.088.426.426 0 0 0-.267.073.225.225 0 0 0-.095.191c0 .074.037.136.111.186.075.05.185.097.33.141.267.08.461.18.583.298s.183.267.183.444a.55.55 0 0 1-.223.464c-.149.111-.349.167-.602.167-.175 0-.334-.032-.478-.095-.144-.065-.254-.153-.33-.264s-.113-.241-.113-.388h.47c0 .251.15.377.45.377a.442.442 0 0 0 .261-.067.222.222 0 0 0 .094-.191zm2.501-1.299h-.697v1.895h-.469v-1.895h-.687v-.38h1.853v.38zm1.638.91h-.9v.609h1.056v.377h-1.525v-2.275h1.522v.38h-1.053v.542h.9v.367zm1.273.153h-.373v.833h-.469v-2.275h.845c.269 0 .476.06.622.18s.219.289.219.508a.697.697 0 0 1-.102.389.689.689 0 0 1-.305.247l.492.93v.022h-.503l-.427-.833zm-.373-.38h.378c.118 0 .209-.03.273-.089a.321.321 0 0 0 .097-.248.343.343 0 0 0-.092-.253c-.06-.061-.154-.092-.28-.092h-.377v.683zm2.84.411v.802h-.469v-2.275h.887c.171 0 .321.031.45.094a.703.703 0 0 1 .405.659.655.655 0 0 1-.23.528c-.152.128-.363.192-.633.192h-.411zm0-.38h.419c.124 0 .218-.029.283-.088.066-.058.098-.142.098-.25 0-.111-.033-.202-.098-.27s-.156-.104-.272-.106h-.43v.714zm2.966.196h-.9v.609h1.056v.377h-1.525v-2.275h1.522v.38h-1.053v.542h.9v.367zm2.175-.91h-.697v1.895h-.469v-1.895h-.688v-.38h1.853v.38zm1.638.91h-.9v.609h1.056v.377h-1.525v-2.275h1.522v.38h-1.053v.542h.9v.367zm1.273.153h-.373v.833h-.469v-2.275h.845c.269 0 .476.06.622.18s.219.289.219.508a.697.697 0 0 1-.102.389.689.689 0 0 1-.305.247l.492.93v.022h-.503l-.427-.833zm-.373-.38h.378c.118 0 .209-.03.273-.089a.321.321 0 0 0 .097-.248.343.343 0 0 0-.092-.253c-.06-.061-.154-.092-.28-.092h-.377v.683zm2.754.616a.237.237 0 0 0-.094-.203 1.203 1.203 0 0 0-.337-.15 2.418 2.418 0 0 1-.386-.156c-.258-.14-.388-.328-.388-.564 0-.123.034-.232.103-.328a.688.688 0 0 1 .298-.227c.13-.054.276-.081.438-.081.163 0 .307.03.434.089a.654.654 0 0 1 .401.614H42.4a.306.306 0 0 0-.098-.242.405.405 0 0 0-.277-.088.426.426 0 0 0-.267.073.225.225 0 0 0-.095.191c0 .074.037.136.111.186.075.05.185.097.33.141.267.08.461.18.583.298s.183.267.183.444a.548.548 0 0 1-.223.464c-.149.111-.349.167-.602.167-.175 0-.334-.032-.478-.095a.773.773 0 0 1-.33-.264.678.678 0 0 1-.112-.388h.47c0 .251.15.377.45.377a.442.442 0 0 0 .261-.067.222.222 0 0 0 .094-.191z"/></symbol><symbol id="send" viewBox="0 0 32 32"><path fill="#fff" style="fill:var(--color1, #fff)" d="M32 0 0 18l10.227 3.788L26 7 14.002 23.186l.01.004-.012-.004V32l5.735-6.691L27 28l5-28z"/></symbol><symbol id="instagram" viewBox="0 0 32 32"><path fill="#afb1b8" style="fill:var(--color2, #afb1b8)" d="M31.969 9.408c-.075-1.7-.35-2.869-.744-3.882a7.806 7.806 0 0 0-1.851-2.838A7.867 7.867 0 0 0 26.542.844C25.523.45 24.36.175 22.66.1 20.947.019 20.403 0 16.059 0s-4.888.019-6.595.094c-1.7.075-2.869.35-3.882.744a7.803 7.803 0 0 0-2.838 1.85A7.867 7.867 0 0 0 .9 5.52C.506 6.539.231 7.702.156 9.402c-.081 1.713-.1 2.257-.1 6.601s.019 4.888.094 6.595c.075 1.7.35 2.869.744 3.882a7.895 7.895 0 0 0 1.85 2.838 7.867 7.867 0 0 0 2.832 1.844c1.019.394 2.182.669 3.882.744 1.706.075 2.25.094 6.595.094s4.888-.019 6.595-.094c1.7-.075 2.869-.35 3.882-.744a8.184 8.184 0 0 0 4.682-4.682c.394-1.019.669-2.182.744-3.882.075-1.707.094-2.251.094-6.595s-.006-4.888-.081-6.595zm-2.882 13.065c-.069 1.563-.331 2.407-.55 2.969a5.31 5.31 0 0 1-3.038 3.038c-.563.219-1.413.481-2.969.55-1.688.075-2.194.094-6.464.094s-4.782-.019-6.464-.094c-1.563-.069-2.407-.331-2.969-.55a4.926 4.926 0 0 1-1.838-1.194 4.974 4.974 0 0 1-1.194-1.838c-.219-.563-.481-1.413-.55-2.969-.075-1.688-.094-2.194-.094-6.464s.019-4.782.094-6.464c.069-1.563.331-2.407.55-2.969a4.868 4.868 0 0 1 1.2-1.838A4.974 4.974 0 0 1 6.639 3.55c.563-.219 1.413-.481 2.969-.55 1.688-.075 2.194-.094 6.464-.094 4.276 0 4.782.019 6.464.094 1.563.069 2.407.331 2.969.55a4.914 4.914 0 0 1 1.838 1.194 4.974 4.974 0 0 1 1.194 1.838c.219.563.481 1.413.55 2.969.075 1.688.094 2.194.094 6.464s-.019 4.77-.094 6.458z"/><path fill="#afb1b8" style="fill:var(--color2, #afb1b8)" d="M16.059 7.783c-4.538 0-8.22 3.682-8.22 8.22s3.682 8.22 8.22 8.22c4.539 0 8.22-3.682 8.22-8.22s-3.682-8.22-8.22-8.22zm0 13.552a5.333 5.333 0 0 1 0-10.664 5.333 5.333 0 0 1 0 10.664zM26.524 7.458a1.919 1.919 0 1 1-3.838 0 1.919 1.919 0 0 1 3.838 0z"/></symbol><symbol id="linkedin" viewBox="0 0 32 32"><path fill="#afb1b8" style="fill:var(--color2, #afb1b8)" d="M31.992 32v-.001H32V20.263c0-5.741-1.236-10.164-7.948-10.164-3.227 0-5.392 1.771-6.276 3.449h-.093v-2.913h-6.364v21.364h6.627V21.42c0-2.785.528-5.479 3.977-5.479 3.399 0 3.449 3.179 3.449 5.657v10.401h6.62zM.528 10.636h6.635V32H.528V10.636zM3.843 0C1.722 0 0 1.721 0 3.843s1.721 3.879 3.843 3.879c2.121 0 3.843-1.757 3.843-3.879A3.846 3.846 0 0 0 3.843 0z"/></symbol><symbol id="client1" viewBox="0 0 32 32"><path fill="#afb1b8" style="fill:var(--color2, #afb1b8)" d="m11.17 8.453 2.206 2.088h6.154v5.826l2.206 2.088V8.452H11.17z"/><path fill="#afb1b8" style="fill:var(--color2, #afb1b8)" d="M9.358 10.453v9.717h10.264v-3.862l-6.182-5.852-4.082-.002zm8.309 8.296h-6.685v-6.535h.473v6.093h6.212v.442zM12.314 21.972l.247-.509h.206l-.36.678v.395h-.187v-.395l-.36-.678h.207l.247.509zm1.06.315h-.416l-.087.25h-.194l.405-1.073h.167l.406 1.073h-.195l-.088-.25zm-.363-.15h.311l-.155-.445-.156.445zm1.098.11c0-.05.014-.095.041-.136s.08-.091.16-.148c-.042-.053-.071-.097-.088-.134s-.024-.072-.024-.107c0-.084.026-.15.077-.199s.12-.074.206-.074c.078 0 .142.023.192.069s.075.102.075.17c0 .045-.011.086-.034.124s-.06.075-.111.112l-.073.053.207.245a.43.43 0 0 0 .045-.197h.155a.535.535 0 0 1-.093.325l.158.186h-.208l-.06-.072c-.077.057-.168.086-.274.086s-.191-.028-.255-.084a.282.282 0 0 1-.095-.22zm.355.162c.06 0 .117-.02.169-.06l-.234-.276-.023.016c-.059.045-.088.096-.088.153 0 .05.016.09.048.121s.075.046.128.046zm-.099-.692c0 .041.025.093.076.155l.082-.056.023-.018a.135.135 0 0 0 .046-.104c0-.028-.011-.052-.032-.072s-.048-.03-.08-.03c-.035 0-.063.012-.083.035s-.031.053-.031.089zm1.95.471c-.011.114-.053.204-.127.268s-.172.096-.294.096c-.085 0-.161-.02-.226-.06s-.115-.099-.15-.173-.054-.161-.055-.26v-.1c0-.101.018-.19.054-.268s.087-.137.154-.178a.43.43 0 0 1 .233-.063c.118 0 .214.032.286.097s.114.155.126.273h-.186c-.009-.077-.031-.133-.068-.167s-.089-.052-.158-.052c-.081 0-.143.03-.187.089s-.065.146-.066.26v.095c0 .116.021.204.062.265s.103.091.183.091c.073 0 .128-.016.165-.049s.06-.088.07-.164h.186zm1.024-.16c0 .105-.018.198-.055.277s-.088.14-.156.183c-.067.042-.145.063-.233.063s-.165-.021-.233-.063c-.068-.043-.12-.103-.158-.182s-.056-.169-.056-.272v-.06c0-.105.018-.197.055-.277s.09-.141.157-.184c.068-.043.145-.064.233-.064s.165.021.232.063c.068.042.12.102.157.181s.056.17.056.275v.06zm-.187-.056c0-.119-.023-.21-.068-.273s-.108-.095-.191-.095c-.081 0-.144.032-.189.095s-.068.152-.069.268v.062c0 .118.023.209.069.273s.11.097.192.097c.083 0 .146-.031.19-.094s.067-.155.067-.276v-.056z"/></symbol><symbol id="client2" viewBox="0 0 32 32"><path fill="#afb1b8" style="fill:var(--color2, #afb1b8)" d="M15.087 9.037h.041c.076 0 .159.008.241.015.36.025.718.079 1.069.161v-.864a6.332 6.332 0 0 0-1.104-.176 7.723 7.723 0 0 0-.446-.021h-.129a9.001 9.001 0 0 0-2.215.286 8.98 8.98 0 0 0-2.35.956v8.573a9.547 9.547 0 0 1 2.24-.873 9.802 9.802 0 0 1 1.88-.289h.025c.106-.005.212-.008.322-.009v-.878c-.825.011-1.645.12-2.444.325-.296.077-.581.16-.849.252l-.305.104V9.915l.131-.063a8.521 8.521 0 0 1 3.202-.81 7.4 7.4 0 0 1 .364-.009h.137c.063.002.127.003.19.007z"/><path fill="#afb1b8" style="fill:var(--color2, #afb1b8)" d="M17.241 9.942a7.76 7.76 0 0 1-1.278-.103 6.696 6.696 0 0 1-.399-.081v8.474c.55.136 1.114.203 1.68.198a9.048 9.048 0 0 0 2.215-.285 9.022 9.022 0 0 0 2.351-.956v-8.42a9.586 9.586 0 0 1-2.239.874 9.528 9.528 0 0 1-2.329.299zm3.389.147.305-.103v6.686l-.131.063a8.41 8.41 0 0 1-1.562.561 8.12 8.12 0 0 1-1.999.259 6.85 6.85 0 0 1-.596-.025l-.209-.018v-6.876l.244.016c.177.012.36.017.56.017a10.353 10.353 0 0 0 2.538-.325c.285-.075.568-.16.849-.254zM10.789 20.894a.453.453 0 0 0-.339-.137.506.506 0 0 0-.196.037c-.057.023-.109.057-.153.101s-.077.096-.098.154a.493.493 0 0 0-.035.19v1.145a.541.541 0 0 0 .045.235.458.458 0 0 0 .115.154.4.4 0 0 0 .157.081.62.62 0 0 0 .171.024.489.489 0 0 0 .475-.483v-.128h-.299v.102a.253.253 0 0 1-.018.102.188.188 0 0 1-.044.064.22.22 0 0 1-.126.044.153.153 0 0 1-.141-.062.275.275 0 0 1-.04-.154v-1.068a.362.362 0 0 1 .037-.171c.016-.024.038-.043.063-.056s.055-.017.083-.013c.026-.001.051.004.075.016s.043.028.059.049a.243.243 0 0 1 .05.154v.099h.296v-.117a.522.522 0 0 0-.137-.361zM12.567 20.881a.532.532 0 0 0-.52-.094.47.47 0 0 0-.274.254.547.547 0 0 0-.044.222v1.099a.46.46 0 0 0 .16.379.478.478 0 0 0 .337.129.524.524 0 0 0 .341-.129.456.456 0 0 0 .113-.154.529.529 0 0 0 .044-.225v-1.099a.53.53 0 0 0-.044-.222.49.49 0 0 0-.113-.16zm-.14 1.481a.194.194 0 0 1-.06.159.22.22 0 0 1-.282 0 .202.202 0 0 1-.06-.159v-1.099c-.002-.029.002-.059.012-.086s.027-.052.048-.073a.22.22 0 0 1 .282 0 .202.202 0 0 1 .06.159v1.099zM14.903 22.853v-2.08h-.288l-.378 1.101h-.005l-.381-1.101h-.285v2.08h.297v-1.265h.005l.291.894h.148l.293-.894h.005v1.265h.297zM16.591 20.919a.43.43 0 0 0-.168-.114.63.63 0 0 0-.215-.032h-.441v2.08h.296v-.812h.153a.539.539 0 0 0 .267-.057.429.429 0 0 0 .163-.159.51.51 0 0 0 .068-.181c.012-.078.017-.157.016-.236.003-.1-.007-.2-.029-.297a.44.44 0 0 0-.109-.191zm-.153.634a.265.265 0 0 1-.027.108.168.168 0 0 1-.076.073.294.294 0 0 1-.14.026h-.135v-.707h.153a.295.295 0 0 1 .134.026.169.169 0 0 1 .07.077.31.31 0 0 1 .026.116v.138c0 .048.003.098 0 .143h-.003zM17.995 20.773h-.243l-.458 2.08h.296l.087-.447h.404l.087.447h.296l-.47-2.08zm-.274 1.35.146-.754h.005l.145.754h-.296zM19.909 22.026h-.005l-.448-1.253h-.285v2.08h.296v-1.251h.006l.453 1.251h.279v-2.08h-.296v1.253zM21.72 20.773l-.238.827h-.006l-.238-.827h-.314l.407 1.201v.879h.296v-.879l.407-1.201h-.314zM9.962 23.44h.143v.401h.097v-.401h.142v-.082h-.382v.082zM11.163 23.358l-.187.483h.103l.04-.11h.192l.041.11h.105l-.192-.483h-.103zm-.015.291.066-.179.066.179h-.131zM12.35 23.663h.112v.062a.192.192 0 0 1-.115.041.126.126 0 0 1-.103-.047.202.202 0 0 1-.036-.126c0-.107.047-.161.139-.161a.102.102 0 0 1 .109.077l.095-.018c-.021-.094-.089-.142-.205-.142a.246.246 0 0 0-.169.062.24.24 0 0 0-.069.186.26.26 0 0 0 .062.181.226.226 0 0 0 .183.071.288.288 0 0 0 .205-.077v-.19h-.209v.081zM13.561 23.358h-.098v.483h.338v-.082h-.241v-.401zM14.586 23.358h-.098v.483h.098v-.483zM15.588 23.68l-.198-.322h-.095v.483h.091v-.316l.194.316h.097v-.483h-.089v.322zM16.494 23.628h.241v-.082h-.241v-.106h.259v-.082h-.357v.483h.367v-.082h-.269v-.131zM18.69 23.548h-.19v-.19h-.097v.483h.097v-.211h.19v.211h.097v-.483h-.097v.19zM19.602 23.628h.241v-.082h-.241v-.106h.26v-.082h-.357v.483h.366v-.082h-.269v-.131zM20.837 23.628c.084-.013.127-.058.127-.134a.117.117 0 0 0-.047-.107.267.267 0 0 0-.141-.028h-.205v.483h.097v-.202h.019a.124.124 0 0 1 .06.011.103.103 0 0 1 .034.035l.105.154h.116l-.059-.094a.34.34 0 0 0-.107-.116zm-.097-.067h-.072v-.121h.076a.24.24 0 0 1 .099.012c.007.006.013.014.016.023s.005.018.005.028a.061.061 0 0 1-.025.048.275.275 0 0 1-.099.012zM21.769 23.628h.241v-.082h-.241v-.106h.26v-.082h-.357v.483h.367v-.082h-.269v-.131z"/></symbol><symbol id="client3" viewBox="0 0 32 32"><path fill="#afb1b8" style="fill:var(--color2, #afb1b8)" d="M11.576 22.278c.005 0 .009.001.013.003s.008.004.011.008l.062.065a.507.507 0 0 1-.175.124.634.634 0 0 1-.248.044.616.616 0 0 1-.233-.041.499.499 0 0 1-.288-.298.678.678 0 0 1 .003-.464.545.545 0 0 1 .12-.181.556.556 0 0 1 .186-.118.673.673 0 0 1 .24-.041.585.585 0 0 1 .223.038.587.587 0 0 1 .167.104l-.052.07a.08.08 0 0 1-.013.013c-.006.004-.014.006-.021.005s-.016-.003-.023-.007l-.028-.018-.039-.024a.435.435 0 0 0-.215-.048.456.456 0 0 0-.172.031.392.392 0 0 0-.135.087.4.4 0 0 0-.088.139.502.502 0 0 0-.032.184.513.513 0 0 0 .032.186.406.406 0 0 0 .086.138c.036.038.08.067.129.086.051.02.105.03.16.03a.757.757 0 0 0 .095-.006.354.354 0 0 0 .205-.096.05.05 0 0 1 .03-.012zM13.37 21.95a.601.601 0 0 1-.042.23.521.521 0 0 1-.301.296.696.696 0 0 1-.472 0 .53.53 0 0 1-.3-.298.654.654 0 0 1 0-.461.54.54 0 0 1 .118-.181.536.536 0 0 1 .182-.113.684.684 0 0 1 .472 0 .51.51 0 0 1 .3.296.615.615 0 0 1 .042.232zm-.163 0a.532.532 0 0 0-.03-.185.354.354 0 0 0-.214-.225.505.505 0 0 0-.343 0 .354.354 0 0 0-.131.087.386.386 0 0 0-.084.138c-.04.12-.04.25 0 .37a.367.367 0 0 0 .215.225.517.517 0 0 0 .343 0 .354.354 0 0 0 .214-.225.532.532 0 0 0 .03-.185zM14.593 22.144l.016.041.018-.041.02-.041.397-.687c.008-.012.015-.019.023-.021a.124.124 0 0 1 .033-.004h.117v1.118h-.139v-.895l-.399.697a.061.061 0 0 1-.057.034h-.023c-.012 0-.024-.003-.034-.009s-.018-.015-.023-.026l-.411-.701v.897h-.134V21.39h.117a.093.093 0 0 1 .033.004.05.05 0 0 1 .022.021l.405.688a.214.214 0 0 1 .02.04zM16.087 22.089v.419h-.155v-1.116h.346a.695.695 0 0 1 .193.024c.05.014.097.037.137.07.034.03.061.068.078.11a.37.37 0 0 1 .026.143.336.336 0 0 1-.029.143.307.307 0 0 1-.084.112.38.38 0 0 1-.137.074.621.621 0 0 1-.187.026l-.188-.003zm0-.12h.188a.405.405 0 0 0 .12-.017.255.255 0 0 0 .087-.048.206.206 0 0 0 .053-.074.236.236 0 0 0 .019-.094c.002-.031-.003-.062-.016-.091s-.031-.055-.054-.076a.31.31 0 0 0-.209-.06h-.188v.46zM18.174 22.509h-.123c-.012 0-.024-.003-.034-.01s-.016-.016-.02-.026l-.106-.27h-.53l-.11.27a.06.06 0 0 1-.019.025.05.05 0 0 1-.035.011h-.123l.466-1.118h.162l.472 1.118zm-.769-.415h.438l-.185-.455a.76.76 0 0 1-.035-.105l-.018.058c-.005.018-.012.034-.017.047l-.183.454zM18.845 21.396a.074.074 0 0 1 .023.02l.679.843v-.868h.139v1.118h-.078c-.011 0-.022-.002-.032-.007s-.018-.012-.025-.021l-.679-.842v.869h-.139V21.39h.082c.01 0 .019.002.028.005zM20.831 22.064v.444h-.155v-.444l-.429-.673h.139a.048.048 0 0 1 .033.01.1.1 0 0 1 .021.025l.269.434a.536.536 0 0 1 .047.099l.02-.048a.406.406 0 0 1 .026-.051l.265-.437a.116.116 0 0 1 .02-.024.044.044 0 0 1 .033-.011h.141l-.43.676zM14.517 19.515c.068.008.136.015.205.021 1.048-.447 1.934-1.177 2.548-2.101s.929-2 .905-3.093l-1.155-1.1c.235 1.164.125 2.367-.317 3.475s-1.199 2.077-2.186 2.798z"/><path fill="#afb1b8" style="fill:var(--color2, #afb1b8)" d="m14.104 19.464.031.006c1.055-.719 1.859-1.723 2.309-2.882s.524-2.42.213-3.62l-1.645-1.567c.665 1.288.933 2.729.772 4.156s-.744 2.782-1.681 3.906zM19.682 15.634a5.67 5.67 0 0 1-1.935 3.089 6.117 6.117 0 0 1-.919.629c.796-.223 1.527-.617 2.137-1.151s1.084-1.196 1.384-1.932l-.667-.635z"/><path fill="#afb1b8" style="fill:var(--color2, #afb1b8)" d="m19.42 15.457-.95-.905c-.018 1.032-.326 2.04-.891 2.92s-1.368 1.599-2.324 2.084h.005c.213 0 .426-.012.637-.036.894-.347 1.683-.9 2.298-1.609s1.036-1.552 1.225-2.453zM14.242 10.741 13.109 9.66c-1.013.373-1.884 1.028-2.499 1.881s-.946 1.862-.949 2.896c.004 1.143.408 2.252 1.148 3.152s1.774 1.539 2.938 1.816c1.039-1.206 1.647-2.696 1.737-4.255s-.345-3.103-1.24-4.409zM22.038 15.29c-.004-1.356-.571-2.656-1.578-3.615s-2.37-1.499-3.794-1.503a5.538 5.538 0 0 0-1.923.341l6.936 6.609a4.85 4.85 0 0 0 .359-1.832z"/></symbol><symbol id="client5" viewBox="0 0 32 32"><path fill="#afb1b8" style="fill:var(--color2, #afb1b8)" d="M8.298 20.612a.474.474 0 0 1 .104.305.476.476 0 0 1-.162.385.704.704 0 0 1-.47.141h-.827v-1.934h.81a.692.692 0 0 1 .449.128.448.448 0 0 1 .157.361.45.45 0 0 1-.094.296.44.44 0 0 1-.246.151c.11.02.209.079.279.165zm-.97-.292h.346a.326.326 0 0 0 .22-.064.232.232 0 0 0 .074-.189.242.242 0 0 0-.074-.189.33.33 0 0 0-.227-.065h-.341v.507zm.6.742a.236.236 0 0 0 .082-.197.24.24 0 0 0-.084-.198.36.36 0 0 0-.235-.07h-.363v.532h.368a.362.362 0 0 0 .232-.067zM9.954 21.443l-.451-.756h-.169v.756h-.388v-1.934h.734a.724.724 0 0 1 .511.164.615.615 0 0 1 .054.8.591.591 0 0 1-.35.196l.48.773h-.421zm-.62-1.019h.317c.22 0 .33-.098.33-.293a.29.29 0 0 0-.081-.217.342.342 0 0 0-.249-.078H9.33l.004.588zM12.073 21.054h-.772l-.136.389h-.406l.709-1.912h.439l.707 1.912h-.406l-.134-.389zm-.104-.293-.282-.816-.282.816h.564zM14.725 21.443h-.385l-.863-1.315v1.315h-.384v-1.934h.384l.863 1.322v-1.322h.385v1.934zM16.921 20.981a.835.835 0 0 1-.348.341 1.13 1.13 0 0 1-.541.122h-.685V19.51h.685c.187-.005.373.036.541.119a.82.82 0 0 1 .348.337 1.129 1.129 0 0 1 0 1.014zm-.441-.047a.708.708 0 0 0 0-.922.67.67 0 0 0-.482-.164h-.267V21.1h.267a.67.67 0 0 0 .482-.164zM12.314 8.755s4.966 1.883 4.861 4.607v4.608s-4.963-1.884-4.859-4.608l-.002-4.607zM21.599 16.89a6.79 6.79 0 0 1 3.155-1.168V14.28a6.479 6.479 0 0 0-3.155 2.61z"/><path fill="#afb1b8" style="fill:var(--color2, #afb1b8)" d="M21.036 17.325a6.76 6.76 0 0 1 3.719-3.347V9.822s-7.073 2.682-6.923 6.561v6.56s.315-.12.811-.345a6.822 6.822 0 0 1 2.394-5.274z"/><path fill="#afb1b8" style="fill:var(--color2, #afb1b8)" d="M20.363 19.762c.037-.455.12-.905.247-1.343a6.354 6.354 0 0 0-1.498 3.963c.402-.194.869-.435 1.36-.72a6.841 6.841 0 0 1-.11-1.9zM20.644 19.786a6.524 6.524 0 0 0 .087 1.72c1.932-1.161 4.104-2.955 4.02-5.122v-.189a6.331 6.331 0 0 0-3.677 1.725 6.504 6.504 0 0 0-.431 1.867z"/></symbol><symbol id="client6" viewBox="0 0 32 32"><path fill="#afb1b8" style="fill:var(--color2, #afb1b8)" d="M16.224 15.503a.98.98 0 0 1-.172-.621v-.9c0-.276.057-.486.171-.629s.31-.215.588-.214c.261 0 .447.061.556.183.12.156.178.346.164.539v.212h-.467v-.214a1.14 1.14 0 0 0-.014-.21.212.212 0 0 0-.067-.125.253.253 0 0 0-.169-.049.267.267 0 0 0-.178.051.24.24 0 0 0-.077.137c-.013.073-.02.148-.018.223v1.093a.606.606 0 0 0 .06.307.226.226 0 0 0 .214.091.236.236 0 0 0 .165-.049.225.225 0 0 0 .07-.133c.011-.072.016-.146.015-.219v-.222h.467v.202a.88.88 0 0 1-.162.566c-.107.134-.29.201-.559.201s-.472-.071-.587-.22zM18.169 15.512c-.118-.14-.177-.344-.177-.615v-.947c0-.267.059-.47.177-.607s.315-.206.592-.205c.275 0 .471.068.589.205s.178.34.178.607v.947c0 .267-.06.473-.18.614s-.315.212-.587.212c-.272 0-.473-.071-.592-.211zm.81-.227a.568.568 0 0 0 .056-.28v-1.16a.568.568 0 0 0-.055-.275c-.024-.033-.057-.059-.095-.075s-.081-.022-.123-.016c-.042-.006-.085 0-.124.016s-.072.042-.096.075a.536.536 0 0 0-.056.275v1.165a.555.555 0 0 0 .056.28.31.31 0 0 0 .219.094c.041 0 .082-.008.12-.025s.071-.04.099-.069v-.005zM20.091 13.165h.503l.378 1.748.387-1.748h.49l.049 2.522h-.362l-.039-1.753-.373 1.753h-.29l-.387-1.759-.036 1.759h-.366l.045-2.522zM22.462 13.165h.784c.451 0 .677.239.677.716 0 .457-.238.686-.713.685h-.267v1.121h-.484l.003-2.522zm.67 1.078a.34.34 0 0 0 .266-.08.443.443 0 0 0 .07-.285.841.841 0 0 0-.023-.229c-.007-.025-.019-.049-.036-.069s-.037-.038-.061-.051a.468.468 0 0 0-.216-.04h-.188v.754h.188zM24.621 13.165h.52l.533 2.522h-.451l-.105-.582h-.463l-.108.582h-.458l.533-2.522zm.444 1.649-.181-1.059-.181 1.059h.362zM26.104 13.165h.339l.648 1.439v-1.439h.401v2.522h-.322l-.652-1.502v1.502h-.415l.001-2.522zM28.433 14.726l-.539-1.557h.454l.329 1 .309-1h.444l-.532 1.557v.962h-.464v-.962zM16.97 16.791v.132h-.395v1.025h-.165v-1.025h-.397v-.132h.957zM18.208 17.948h-.128a.052.052 0 0 1-.036-.011.056.056 0 0 1-.021-.027l-.114-.275h-.548l-.114.275a.073.073 0 0 1-.017.031.052.052 0 0 1-.036.011h-.128l.484-1.157h.168l.49 1.152zm-.801-.43h.457l-.194-.471a1.069 1.069 0 0 1-.036-.109 1.71 1.71 0 0 0-.018.061l-.017.049-.192.47zM19.042 17.834a.497.497 0 0 0 .168-.014.809.809 0 0 0 .135-.049v-.26h-.194c-.005 0-.01 0-.014-.002s-.009-.004-.012-.007c-.003-.003-.006-.006-.007-.009l-.002-.012v-.089h.375v.443a.712.712 0 0 1-.325.118 1.331 1.331 0 0 1-.141.007.61.61 0 0 1-.438-.164.568.568 0 0 1-.169-.423.652.652 0 0 1 .044-.242c.028-.069.07-.131.125-.183s.121-.093.194-.12a.854.854 0 0 1 .393-.033.646.646 0 0 1 .212.075.665.665 0 0 1 .084.06l-.046.071c-.004.007-.009.012-.016.016s-.014.006-.022.006a.053.053 0 0 1-.03-.009.396.396 0 0 1-.047-.027.565.565 0 0 0-.464-.035.396.396 0 0 0-.232.236.594.594 0 0 0 0 .386.415.415 0 0 0 .43.261zM20.584 17.816h.528v.132h-.69v-1.157h.165l-.004 1.025zM21.662 17.947h-.165V16.79h.165v1.157zM22.277 16.796c.01.005.018.012.025.021l.707.872V16.786h.144v1.161h-.083a.074.074 0 0 1-.036-.006.092.092 0 0 1-.026-.022l-.706-.871V17.947h-.138V16.79h.086c.009 0 .019.002.027.006zM24.372 16.791v.127h-.586v.382h.475v.123h-.475v.395h.586v.127h-.757v-1.154h.757zM7.035 9.646l7.346 1.975v6.92l-7.346-1.974V9.646zm-.471-.589v7.847l8.288 2.228v-7.846L6.564 9.057z"/><path fill="#afb1b8" style="fill:var(--color2, #afb1b8)" d="m11.006 22.774-8.289-2.23v-7.846l8.289 2.229v7.847z"/><path fill="#afb1b8" style="fill:var(--color2, #afb1b8)" d="m6.701 9.558 7.251 1.95-3.083 2.92-7.252-1.951 3.084-2.919zm-.137-.501-3.847 3.642 8.289 2.229 3.846-3.642-8.288-2.229zM11.472 22.333l3.38-3.2-3.38-.91v4.11z"/></symbol><symbol id="person-black" viewBox="0 0 32 32"><path d="M16 16c2.947 0 5.333-2.387 5.333-5.333S18.946 5.334 16 5.334c-2.947 0-5.333 2.387-5.333 5.333S13.054 16 16 16zm0 2.667c-3.56 0-10.667 1.787-10.667 5.333v1.333c0 .733.6 1.333 1.333 1.333h18.667c.733 0 1.333-.6 1.333-1.333V24c0-3.547-7.107-5.333-10.667-5.333z"/></symbol><symbol id="phone-black" viewBox="0 0 32 32"><path d="m24.882 19.774-3.268-.373a2.561 2.561 0 0 0-2.11.733l-2.367 2.367a19.357 19.357 0 0 1-8.478-8.478l2.38-2.38a2.561 2.561 0 0 0 .733-2.11l-.373-3.242a2.575 2.575 0 0 0-2.56-2.277H6.613c-1.454 0-2.663 1.209-2.573 2.663.682 10.987 9.469 19.761 20.443 20.443 1.454.09 2.663-1.119 2.663-2.573v-2.226a2.55 2.55 0 0 0-2.264-2.547z"/></symbol><symbol id="smartphone" viewBox="0 0 32 32"><path fill="#757575" style="fill:var(--color3, #757575)" d="M24 0H8C6.109 0 4.571 1.346 4.571 3v26c0 1.654 1.538 3 3.429 3h16c1.891 0 3.429-1.346 3.429-3V3c0-1.654-1.538-3-3.429-3zM8 2h16c.631 0 1.143.448 1.143 1v21H6.857V3c0-.552.512-1 1.143-1zm16 28H8c-.631 0-1.143-.448-1.143-1v-3h18.286v3c0 .552-.512 1-1.143 1z"/><path fill="#757575" style="fill:var(--color3, #757575)" d="M9.951 27.293c.446.391.446 1.024 0 1.415s-1.17.391-1.616 0c-.446-.391-.446-1.024 0-1.415s1.17-.391 1.616 0z"/></symbol><symbol id="twitter" viewBox="0 0 32 32"><path fill="#afb1b8" style="fill:var(--color2, #afb1b8)" d="M32 6.078c-1.19.522-2.458.868-3.78 1.036a6.523 6.523 0 0 0 2.886-3.626 13.11 13.11 0 0 1-4.16 1.588A6.574 6.574 0 0 0 22.154 3c-3.632 0-6.556 2.948-6.556 6.562 0 .52.044 1.02.152 1.496-5.454-.266-10.28-2.88-13.522-6.862a6.605 6.605 0 0 0-.898 3.316 6.57 6.57 0 0 0 2.914 5.452 6.479 6.479 0 0 1-2.964-.808v.072c0 3.188 2.274 5.836 5.256 6.446a6.548 6.548 0 0 1-1.72.216 5.8 5.8 0 0 1-1.242-.112c.85 2.598 3.262 4.508 6.13 4.57a13.182 13.182 0 0 1-8.134 2.798c-.538 0-1.054-.024-1.57-.09A18.469 18.469 0 0 0 10.064 29c12.072 0 18.672-10 18.672-18.668 0-.29-.01-.57-.024-.848A13.087 13.087 0 0 0 32 6.078z"/></symbol><symbol id="close-black" viewBox="0 0 32 32"><path d="m26.667 7.303-1.97-1.97-7.808 7.808-7.808-7.808-1.97 1.97 7.808 7.808-7.808 7.808 1.97 1.97 7.808-7.808 7.808 7.808 1.97-1.97-7.808-7.808 7.808-7.808z"/></symbol><symbol id="email-black" viewBox="0 0 32 32"><path d="M26.667 5.333H5.334A2.663 2.663 0 0 0 2.681 8l-.013 16c0 1.467 1.2 2.667 2.667 2.667h21.333c1.467 0 2.667-1.2 2.667-2.667V8c0-1.467-1.2-2.667-2.667-2.667zM26.133 11l-9.427 5.893a1.346 1.346 0 0 1-1.413 0L5.866 11a1.132 1.132 0 1 1 1.2-1.92l8.933 5.587 8.933-5.587a1.132 1.132 0 1 1 1.2 1.92z"/></symbol><symbol id="envelope" viewBox="0 0 32 32"><path fill="#757575" style="fill:var(--color3, #757575)" d="M29 4.571H3c-1.654 0-3 1.282-3 2.857v17.143c0 1.576 1.346 2.857 3 2.857h26c1.654 0 3-1.282 3-2.857V7.428c0-1.576-1.346-2.857-3-2.857zm0 1.905c.136 0 .265.027.383.074L16 17.597 2.617 6.55c.118-.047.247-.074.383-.074h26zm0 19.048H3c-.552 0-1-.427-1-.952V8.563l13.345 11.015c.188.155.422.233.655.233s.467-.077.655-.233L30 8.563v16.009c0 .526-.448.952-1 .952z"/></symbol><symbol id="facebook" viewBox="0 0 32 32"><path fill="#afb1b8" style="fill:var(--color2, #afb1b8)" d="M21.329 5.313h2.921V.225C23.746.156 22.013 0 19.994 0c-4.212 0-7.097 2.649-7.097 7.519V12H8.249v5.688h4.648V32h5.699V17.689h4.46l.708-5.688h-5.169V8.082c.001-1.644.444-2.769 2.735-2.769z"/></symbol></defs></svg>